<svg class="main-svg" xmlns="http://www.w3.org/2000/svg" xmlns:xlink="http://www.w3.org/1999/xlink" width="900" height="500" style="" viewBox="0 0 900 500"><rect x="0" y="0" width="900" height="500" style="fill: rgb(255, 255, 255); fill-opacity: 1;"/><defs id="defs-f55838"><g class="clips"><clipPath id="clipf55838xyplot" class="plotclip"><rect width="582.8" height="311"/></clipPath><clipPath id="clipf55838xy2plot" class="plotclip"><rect width="582.8" height="311"/></clipPath><clipPath class="axesclip" id="clipf55838x"><rect x="80" y="0" width="582.8" height="500"/></clipPath><clipPath class="axesclip" id="clipf55838y"><rect x="0" y="100" width="900" height="311"/></clipPath><clipPath class="axesclip" id="clipf55838xy"><rect x="80" y="100" width="582.8" height="311"/></clipPath><clipPath class="axesclip" id="clipf55838y2"><rect x="0" y="100" width="900" height="311"/></clipPath><clipPath class="axesclip" id="clipf55838xy2"><rect x="80" y="100" width="582.8" height="311"/></clipPath></g><g class="gradients"/></defs><g class="bglayer"><rect class="bg" x="80" y="100" width="582.8" height="311" style="fill: rgb(229, 236, 246); fill-opacity: 1; stroke-width: 0;"/></g><g class="layer-below"><g class="imagelayer"/><g class="shapelayer"/></g><g class="cartesianlayer"><g class="subplot xy"><g class="layer-subplot"><g class="shapelayer"/><g class="imagelayer"/></g><g class="gridlayer"><g class="x"><path class="xgrid crisp" transform="translate(100.81,0)" d="M0,100v311" style="stroke: rgb(255, 255, 255); stroke-opacity: 1; stroke-width: 1px;"/><path class="xgrid crisp" transform="translate(121.63,0)" d="M0,100v311" style="stroke: rgb(255, 255, 255); stroke-opacity: 1; stroke-width: 1px;"/><path class="xgrid crisp" transform="translate(142.44,0)" d="M0,100v311" style="stroke: rgb(255, 255, 255); stroke-opacity: 1; stroke-width: 1px;"/><path class="xgrid crisp" transform="translate(163.26,0)" d="M0,100v311" style="stroke: rgb(255, 255, 255); stroke-opacity: 1; stroke-width: 1px;"/><path class="xgrid crisp" transform="translate(184.07,0)" d="M0,100v311" style="stroke: rgb(255, 255, 255); stroke-opacity: 1; stroke-width: 1px;"/><path class="xgrid crisp" transform="translate(204.89,0)" d="M0,100v311" style="stroke: rgb(255, 255, 255); stroke-opacity: 1; stroke-width: 1px;"/><path class="xgrid crisp" transform="translate(225.7,0)" d="M0,100v311" style="stroke: rgb(255, 255, 255); stroke-opacity: 1; stroke-width: 1px;"/><path class="xgrid crisp" transform="translate(246.51,0)" d="M0,100v311" style="stroke: rgb(255, 255, 255); stroke-opacity: 1; stroke-width: 1px;"/><path class="xgrid crisp" transform="translate(267.33000000000004,0)" d="M0,100v311" style="stroke: rgb(255, 255, 255); stroke-opacity: 1; stroke-width: 1px;"/><path class="xgrid crisp" transform="translate(288.14,0)" d="M0,100v311" style="stroke: rgb(255, 255, 255); stroke-opacity: 1; stroke-width: 1px;"/><path class="xgrid crisp" transform="translate(308.96000000000004,0)" d="M0,100v311" style="stroke: rgb(255, 255, 255); stroke-opacity: 1; stroke-width: 1px;"/><path class="xgrid crisp" transform="translate(329.77,0)" d="M0,100v311" style="stroke: rgb(255, 255, 255); stroke-opacity: 1; stroke-width: 1px;"/><path class="xgrid crisp" transform="translate(350.59,0)" d="M0,100v311" style="stroke: rgb(255, 255, 255); stroke-opacity: 1; stroke-width: 1px;"/><path class="xgrid crisp" transform="translate(371.4,0)" d="M0,100v311" style="stroke: rgb(255, 255, 255); stroke-opacity: 1; stroke-width: 1px;"/><path class="xgrid crisp" transform="translate(392.21,0)" d="M0,100v311" style="stroke: rgb(255, 255, 255); stroke-opacity: 1; stroke-width: 1px;"/><path class="xgrid crisp" transform="translate(413.03,0)" d="M0,100v311" style="stroke: rgb(255, 255, 255); stroke-opacity: 1; stroke-width: 1px;"/><path class="xgrid crisp" transform="translate(433.84,0)" d="M0,100v311" style="stroke: rgb(255, 255, 255); stroke-opacity: 1; stroke-width: 1px;"/><path class="xgrid crisp" transform="translate(454.66,0)" d="M0,100v311" style="stroke: rgb(255, 255, 255); stroke-opacity: 1; stroke-width: 1px;"/><path class="xgrid crisp" transform="translate(475.47,0)" d="M0,100v311" style="stroke: rgb(255, 255, 255); stroke-opacity: 1; stroke-width: 1px;"/><path class="xgrid crisp" transform="translate(496.29,0)" d="M0,100v311" style="stroke: rgb(255, 255, 255); stroke-opacity: 1; stroke-width: 1px;"/><path class="xgrid crisp" transform="translate(517.1,0)" d="M0,100v311" style="stroke: rgb(255, 255, 255); stroke-opacity: 1; stroke-width: 1px;"/><path class="xgrid crisp" transform="translate(537.9100000000001,0)" d="M0,100v311" style="stroke: rgb(255, 255, 255); stroke-opacity: 1; stroke-width: 1px;"/><path class="xgrid crisp" transform="translate(558.73,0)" d="M0,100v311" style="stroke: rgb(255, 255, 255); stroke-opacity: 1; stroke-width: 1px;"/><path class="xgrid crisp" transform="translate(579.54,0)" d="M0,100v311" style="stroke: rgb(255, 255, 255); stroke-opacity: 1; stroke-width: 1px;"/><path class="xgrid crisp" transform="translate(600.36,0)" d="M0,100v311" style="stroke: rgb(255, 255, 255); stroke-opacity: 1; stroke-width: 1px;"/><path class="xgrid crisp" transform="translate(621.17,0)" d="M0,100v311" style="stroke: rgb(255, 255, 255); stroke-opacity: 1; stroke-width: 1px;"/><path class="xgrid crisp" transform="translate(641.99,0)" d="M0,100v311" style="stroke: rgb(255, 255, 255); stroke-opacity: 1; stroke-width: 1px;"/></g><g class="y"><path class="ygrid crisp" transform="translate(0,361.22)" d="M80,0h582.8" style="stroke: rgb(255, 255, 255); stroke-opacity: 1; stroke-width: 1px;"/><path class="ygrid crisp" transform="translate(0,313.97)" d="M80,0h582.8" style="stroke: rgb(255, 255, 255); stroke-opacity: 1; stroke-width: 1px;"/><path class="ygrid crisp" transform="translate(0,266.71000000000004)" d="M80,0h582.8" style="stroke: rgb(255, 255, 255); stroke-opacity: 1; stroke-width: 1px;"/><path class="ygrid crisp" transform="translate(0,219.45999999999998)" d="M80,0h582.8" style="stroke: rgb(255, 255, 255); stroke-opacity: 1; stroke-width: 1px;"/><path class="ygrid crisp" transform="translate(0,172.20999999999998)" d="M80,0h582.8" style="stroke: rgb(255, 255, 255); stroke-opacity: 1; stroke-width: 1px;"/><path class="ygrid crisp" transform="translate(0,124.96000000000001)" d="M80,0h582.8" style="stroke: rgb(255, 255, 255); stroke-opacity: 1; stroke-width: 1px;"/></g><g class="y2"><path class="y2grid crisp" transform="translate(0,346.4)" d="M80,0h582.8" style="stroke: rgb(255, 255, 255); stroke-opacity: 1; stroke-width: 1px;"/><path class="y2grid crisp" transform="translate(0,274.26)" d="M80,0h582.8" style="stroke: rgb(255, 255, 255); stroke-opacity: 1; stroke-width: 1px;"/><path class="y2grid crisp" transform="translate(0,202.12)" d="M80,0h582.8" style="stroke: rgb(255, 255, 255); stroke-opacity: 1; stroke-width: 1px;"/><path class="y2grid crisp" transform="translate(0,129.98)" d="M80,0h582.8" style="stroke: rgb(255, 255, 255); stroke-opacity: 1; stroke-width: 1px;"/></g></g><g class="zerolinelayer"><path class="yzl zl crisp" transform="translate(0,408.47)" d="M80,0h582.8" style="stroke: rgb(255, 255, 255); stroke-opacity: 1; stroke-width: 2px;"/></g><path class="xlines-below"/><path class="ylines-below"/><g class="overlines-below"><path class="xy2-x"/><path class="xy2-y"/></g><g class="xaxislayer-below"/><g class="yaxislayer-below"/><g class="overaxes-below"><g class="xy2-x"/><g class="xy2-y"/></g><g class="plot" transform="translate(80,100)" clip-path="url('#clipf55838xyplot')"><g class="scatterlayer mlayer"><g class="trace scatter trace03a163" style="stroke-miterlimit: 2; opacity: 1;"><g class="fills"/><g class="errorbars"/><g class="lines"><path class="js-line" d="M0,155.54L10.41,121.69L20.81,15.55L31.22,136.32L41.63,174.26L52.04,152.45L62.44,144.53L72.85,137.04L83.26,175.48L93.66,153.62L104.07,145.02L114.48,137.5L124.89,158.04L135.29,177.29L145.7,132.78L156.11,168.21L166.51,130.42L176.92,128.5L187.33,122.23L197.74,102.58L208.14,120.82L218.55,128.2L228.96,108.39L239.36,128.19L249.77,136.72L260.18,153.74L270.59,125.27L280.99,105.63L291.4,89.64L301.81,112.22L312.21,104.87L322.62,90.74L333.03,124.07L343.44,89.67L353.84,110.14L364.25,118.83L374.66,102.53L385.06,138.44L395.47,137.86L405.88,100.78L416.29,93.28L426.69,111.7L437.1,69.66L447.51,83.77L457.91,96.12L468.32,90.96L478.73,118.22L489.14,110.19L499.54,109.57L509.95,140.39L520.36,179.25L530.76,278.15L541.17,295.45L551.58,288.93L561.99,271.38L572.39,268.91L582.8,250.92" style="vector-effect: non-scaling-stroke; fill: none; stroke: rgb(0, 0, 255); stroke-opacity: 1; stroke-width: 3px; opacity: 1;"/></g><g class="points"/><g class="text"/></g></g></g><g class="overplot"><g class="xy2" transform="translate(80,100)" clip-path="url('#clipf55838xy2plot')"><g class="scatterlayer mlayer"><g class="trace scatter trace215dd1" style="stroke-miterlimit: 2; opacity: 1;"><g class="fills"/><g class="errorbars"/><g class="lines"><path class="js-line" d="M0,283.76L20.81,283.76L31.22,292.56L52.04,292.56L62.44,295.45L114.48,295.45L124.89,291.12L145.7,291.12L156.11,283.91L176.92,283.91L187.33,282.46L208.14,282.46L218.55,289.68L239.36,289.68L249.77,279.58L270.59,279.58L280.99,278.14L301.81,278.14L312.21,276.69L333.03,276.69L343.44,273.81L364.25,273.81L374.66,269.48L395.47,269.48L405.88,285.35L426.69,285.35L437.1,286.79L457.91,286.79L468.32,285.35L489.14,285.35L499.54,252.17L520.36,252.17L530.76,15.55L551.58,15.55L561.99,159.83L582.8,159.83" style="vector-effect: non-scaling-stroke; fill: none; stroke: rgb(255, 165, 0); stroke-opacity: 1; stroke-width: 2.5px; opacity: 1; stroke-dasharray: 9px, 9px;"/></g><g class="points"/><g class="text"/></g></g></g></g><path class="xlines-above crisp" d="M0,0" style="fill: none;"/><path class="ylines-above crisp" d="M0,0" style="fill: none;"/><g class="overlines-above"><path class="xy2-x crisp" d="M0,0" style="fill: none;"/><path class="xy2-y crisp" d="M0,0" style="fill: none;"/></g><g class="xaxislayer-above"><g class="xtick"><text text-anchor="start" x="0" y="424" transform="translate(80,0) rotate(90,0,418)" style="font-family: 'Open Sans', verdana, arial, sans-serif; font-size: 12px; fill: rgb(42, 63, 95); fill-opacity: 1; white-space: pre;">Jan-16</text></g><g class="xtick"><text text-anchor="start" x="0" y="424" transform="translate(100.81,0) rotate(90,0,418)" style="font-family: 'Open Sans', verdana, arial, sans-serif; font-size: 12px; fill: rgb(42, 63, 95); fill-opacity: 1; white-space: pre;">Mar-16</text></g><g class="xtick"><text text-anchor="start" x="0" y="424" transform="translate(121.63,0) rotate(90,0,418)" style="font-family: 'Open Sans', verdana, arial, sans-serif; font-size: 12px; fill: rgb(42, 63, 95); fill-opacity: 1; white-space: pre;">May-16</text></g><g class="xtick"><text text-anchor="start" x="0" y="424" transform="translate(142.44,0) rotate(90,0,418)" style="font-family: 'Open Sans', verdana, arial, sans-serif; font-size: 12px; fill: rgb(42, 63, 95); fill-opacity: 1; white-space: pre;">Jul-16</text></g><g class="xtick"><text text-anchor="start" x="0" y="424" transform="translate(163.26,0) rotate(90,0,418)" style="font-family: 'Open Sans', verdana, arial, sans-serif; font-size: 12px; fill: rgb(42, 63, 95); fill-opacity: 1; white-space: pre;">Sep-16</text></g><g class="xtick"><text text-anchor="start" x="0" y="424" transform="translate(184.07,0) rotate(90,0,418)" style="font-family: 'Open Sans', verdana, arial, sans-serif; font-size: 12px; fill: rgb(42, 63, 95); fill-opacity: 1; white-space: pre;">Nov-16</text></g><g class="xtick"><text text-anchor="start" x="0" y="424" transform="translate(204.89,0) rotate(90,0,418)" style="font-family: 'Open Sans', verdana, arial, sans-serif; font-size: 12px; fill: rgb(42, 63, 95); fill-opacity: 1; white-space: pre;">Jan-17</text></g><g class="xtick"><text text-anchor="start" x="0" y="424" transform="translate(225.7,0) rotate(90,0,418)" style="font-family: 'Open Sans', verdana, arial, sans-serif; font-size: 12px; fill: rgb(42, 63, 95); fill-opacity: 1; white-space: pre;">Mar-17</text></g><g class="xtick"><text text-anchor="start" x="0" y="424" transform="translate(246.51,0) rotate(90,0,418)" style="font-family: 'Open Sans', verdana, arial, sans-serif; font-size: 12px; fill: rgb(42, 63, 95); fill-opacity: 1; white-space: pre;">May-17</text></g><g class="xtick"><text text-anchor="start" x="0" y="424" transform="translate(267.33000000000004,0) rotate(90,0,418)" style="font-family: 'Open Sans', verdana, arial, sans-serif; font-size: 12px; fill: rgb(42, 63, 95); fill-opacity: 1; white-space: pre;">Jul-17</text></g><g class="xtick"><text text-anchor="start" x="0" y="424" transform="translate(288.14,0) rotate(90,0,418)" style="font-family: 'Open Sans', verdana, arial, sans-serif; font-size: 12px; fill: rgb(42, 63, 95); fill-opacity: 1; white-space: pre;">Sep-17</text></g><g class="xtick"><text text-anchor="start" x="0" y="424" transform="translate(308.96000000000004,0) rotate(90,0,418)" style="font-family: 'Open Sans', verdana, arial, sans-serif; font-size: 12px; fill: rgb(42, 63, 95); fill-opacity: 1; white-space: pre;">Nov-17</text></g><g class="xtick"><text text-anchor="start" x="0" y="424" transform="translate(329.77,0) rotate(90,0,418)" style="font-family: 'Open Sans', verdana, arial, sans-serif; font-size: 12px; fill: rgb(42, 63, 95); fill-opacity: 1; white-space: pre;">Jan-18</text></g><g class="xtick"><text text-anchor="start" x="0" y="424" transform="translate(350.59,0) rotate(90,0,418)" style="font-family: 'Open Sans', verdana, arial, sans-serif; font-size: 12px; fill: rgb(42, 63, 95); fill-opacity: 1; white-space: pre;">Mar-18</text></g><g class="xtick"><text text-anchor="start" x="0" y="424" transform="translate(371.4,0) rotate(90,0,418)" style="font-family: 'Open Sans', verdana, arial, sans-serif; font-size: 12px; fill: rgb(42, 63, 95); fill-opacity: 1; white-space: pre;">May-18</text></g><g class="xtick"><text text-anchor="start" x="0" y="424" transform="translate(392.21,0) rotate(90,0,418)" style="font-family: 'Open Sans', verdana, arial, sans-serif; font-size: 12px; fill: rgb(42, 63, 95); fill-opacity: 1; white-space: pre;">Jul-18</text></g><g class="xtick"><text text-anchor="start" x="0" y="424" transform="translate(413.03,0) rotate(90,0,418)" style="font-family: 'Open Sans', verdana, arial, sans-serif; font-size: 12px; fill: rgb(42, 63, 95); fill-opacity: 1; white-space: pre;">Sep-18</text></g><g class="xtick"><text text-anchor="start" x="0" y="424" transform="translate(433.84,0) rotate(90,0,418)" style="font-family: 'Open Sans', verdana, arial, sans-serif; font-size: 12px; fill: rgb(42, 63, 95); fill-opacity: 1; white-space: pre;">Nov-18</text></g><g class="xtick"><text text-anchor="start" x="0" y="424" transform="translate(454.66,0) rotate(90,0,418)" style="font-family: 'Open Sans', verdana, arial, sans-serif; font-size: 12px; fill: rgb(42, 63, 95); fill-opacity: 1; white-space: pre;">Jan-19</text></g><g class="xtick"><text text-anchor="start" x="0" y="424" transform="translate(475.47,0) rotate(90,0,418)" style="font-family: 'Open Sans', verdana, arial, sans-serif; font-size: 12px; fill: rgb(42, 63, 95); fill-opacity: 1; white-space: pre;">Mar-19</text></g><g class="xtick"><text text-anchor="start" x="0" y="424" transform="translate(496.29,0) rotate(90,0,418)" style="font-family: 'Open Sans', verdana, arial, sans-serif; font-size: 12px; fill: rgb(42, 63, 95); fill-opacity: 1; white-space: pre;">May-19</text></g><g class="xtick"><text text-anchor="start" x="0" y="424" transform="translate(517.1,0) rotate(90,0,418)" style="font-family: 'Open Sans', verdana, arial, sans-serif; font-size: 12px; fill: rgb(42, 63, 95); fill-opacity: 1; white-space: pre;">Jul-19</text></g><g class="xtick"><text text-anchor="start" x="0" y="424" transform="translate(537.9100000000001,0) rotate(90,0,418)" style="font-family: 'Open Sans', verdana, arial, sans-serif; font-size: 12px; fill: rgb(42, 63, 95); fill-opacity: 1; white-space: pre;">Sep-19</text></g><g class="xtick"><text text-anchor="start" x="0" y="424" transform="translate(558.73,0) rotate(90,0,418)" style="font-family: 'Open Sans', verdana, arial, sans-serif; font-size: 12px; fill: rgb(42, 63, 95); fill-opacity: 1; white-space: pre;">Nov-19</text></g><g class="xtick"><text text-anchor="start" x="0" y="424" transform="translate(579.54,0) rotate(90,0,418)" style="font-family: 'Open Sans', verdana, arial, sans-serif; font-size: 12px; fill: rgb(42, 63, 95); fill-opacity: 1; white-space: pre;">Jan-20</text></g><g class="xtick"><text text-anchor="start" x="0" y="424" transform="translate(600.36,0) rotate(90,0,418)" style="font-family: 'Open Sans', verdana, arial, sans-serif; font-size: 12px; fill: rgb(42, 63, 95); fill-opacity: 1; white-space: pre;">Mar-20</text></g><g class="xtick"><text text-anchor="start" x="0" y="424" transform="translate(621.17,0) rotate(90,0,418)" style="font-family: 'Open Sans', verdana, arial, sans-serif; font-size: 12px; fill: rgb(42, 63, 95); fill-opacity: 1; white-space: pre;">May-20</text></g><g class="xtick"><text text-anchor="start" x="0" y="424" transform="translate(641.99,0) rotate(90,0,418)" style="font-family: 'Open Sans', verdana, arial, sans-serif; font-size: 12px; fill: rgb(42, 63, 95); fill-opacity: 1; white-space: pre;">Jul-20</text></g><g class="xtick"><text text-anchor="start" x="0" y="424" transform="translate(662.8,0) rotate(90,0,418)" style="font-family: 'Open Sans', verdana, arial, sans-serif; font-size: 12px; fill: rgb(42, 63, 95); fill-opacity: 1; white-space: pre;">Sep-20</text></g></g><g class="yaxislayer-above"><g class="ytick"><text text-anchor="end" x="79" y="4.199999999999999" transform="translate(0,408.47)" style="font-family: 'Open Sans', verdana, arial, sans-serif; font-size: 12px; fill: rgb(42, 63, 95); fill-opacity: 1; white-space: pre;">0</text></g><g class="ytick"><text text-anchor="end" x="79" y="4.199999999999999" transform="translate(0,361.22)" style="font-family: 'Open Sans', verdana, arial, sans-serif; font-size: 12px; fill: rgb(42, 63, 95); fill-opacity: 1; white-space: pre;">10k</text></g><g class="ytick"><text text-anchor="end" x="79" y="4.199999999999999" transform="translate(0,313.97)" style="font-family: 'Open Sans', verdana, arial, sans-serif; font-size: 12px; fill: rgb(42, 63, 95); fill-opacity: 1; white-space: pre;">20k</text></g><g class="ytick"><text text-anchor="end" x="79" y="4.199999999999999" transform="translate(0,266.71000000000004)" style="font-family: 'Open Sans', verdana, arial, sans-serif; font-size: 12px; fill: rgb(42, 63, 95); fill-opacity: 1; white-space: pre;">30k</text></g><g class="ytick"><text text-anchor="end" x="79" y="4.199999999999999" transform="translate(0,219.45999999999998)" style="font-family: 'Open Sans', verdana, arial, sans-serif; font-size: 12px; fill: rgb(42, 63, 95); fill-opacity: 1; white-space: pre;">40k</text></g><g class="ytick"><text text-anchor="end" x="79" y="4.199999999999999" transform="translate(0,172.20999999999998)" style="font-family: 'Open Sans', verdana, arial, sans-serif; font-size: 12px; fill: rgb(42, 63, 95); fill-opacity: 1; white-space: pre;">50k</text></g><g class="ytick"><text text-anchor="end" x="79" y="4.199999999999999" transform="translate(0,124.96000000000001)" style="font-family: 'Open Sans', verdana, arial, sans-serif; font-size: 12px; fill: rgb(42, 63, 95); fill-opacity: 1; white-space: pre;">60k</text></g></g><g class="overaxes-above"><g class="xy2-x"/><g class="xy2-y"><g class="y2tick"><text text-anchor="start" x="663.8" y="4.199999999999999" transform="translate(0,346.4)" style="font-family: 'Open Sans', verdana, arial, sans-serif; font-size: 12px; fill: rgb(42, 63, 95); fill-opacity: 1; white-space: pre;">0.1</text></g><g class="y2tick"><text text-anchor="start" x="663.8" y="4.199999999999999" transform="translate(0,274.26)" style="font-family: 'Open Sans', verdana, arial, sans-serif; font-size: 12px; fill: rgb(42, 63, 95); fill-opacity: 1; white-space: pre;">0.15</text></g><g class="y2tick"><text text-anchor="start" x="663.8" y="4.199999999999999" transform="translate(0,202.12)" style="font-family: 'Open Sans', verdana, arial, sans-serif; font-size: 12px; fill: rgb(42, 63, 95); fill-opacity: 1; white-space: pre;">0.2</text></g><g class="y2tick"><text text-anchor="start" x="663.8" y="4.199999999999999" transform="translate(0,129.98)" style="font-family: 'Open Sans', verdana, arial, sans-serif; font-size: 12px; fill: rgb(42, 63, 95); fill-opacity: 1; white-space: pre;">0.25</text></g></g></g></g><g class="subplot xy2"/></g><g class="polarlayer"/><g class="ternarylayer"/><g class="geolayer"/><g class="funnelarealayer"/><g class="pielayer"/><g class="treemaplayer"/><g class="sunburstlayer"/><g class="glimages"/><defs id="topdefs-f55838"><g class="clips"/><clipPath id="legendf55838"><rect width="176" height="48" x="0" y="0"/></clipPath></defs><g class="layer-above"><g class="imagelayer"/><g class="shapelayer"/></g><g class="infolayer"><g class="legend" pointer-events="all" transform="translate(712.4,100)"><rect class="bg" shape-rendering="crispEdges" style="stroke: rgb(68, 68, 68); stroke-opacity: 1; fill: rgb(255, 255, 255); fill-opacity: 1; stroke-width: 0px;" width="176" height="48" x="0" y="0"/><g class="scrollbox" transform="" clip-path="url('#legendf55838')"><g class="groups"><g class="traces" transform="translate(0,14.5)" style="opacity: 1;"><text class="legendtext" text-anchor="start" x="40" y="4.680000000000001" style="font-family: 'Open Sans', verdana, arial, sans-serif; font-size: 12px; fill: rgb(42, 63, 95); fill-opacity: 1; white-space: pre;">Personal Saving Ratio</text><g class="layers" style="opacity: 1;"><g class="legendfill"/><g class="legendlines"><path class="js-line" d="M5,0h30" style="fill: none; stroke: rgb(255, 165, 0); stroke-opacity: 1; stroke-dasharray: 9px, 9px; stroke-width: 2.5px;"/></g><g class="legendsymbols"><g class="legendpoints"/></g></g><rect class="legendtoggle" x="0" y="-9.5" width="170.6875" height="19" style="fill: rgb(0, 0, 0); fill-opacity: 0;"/></g><g class="traces" transform="translate(0,33.5)" style="opacity: 1;"><text class="legendtext" text-anchor="start" x="40" y="4.680000000000001" style="font-family: 'Open Sans', verdana, arial, sans-serif; font-size: 12px; fill: rgb(42, 63, 95); fill-opacity: 1; white-space: pre;">N. Loans Issued</text><g class="layers" style="opacity: 1;"><g class="legendfill"/><g class="legendlines"><path class="js-line" d="M5,0h30" style="fill: none; stroke: rgb(0, 0, 255); stroke-opacity: 1; stroke-width: 3px;"/></g><g class="legendsymbols"><g class="legendpoints"/></g></g><rect class="legendtoggle" x="0" y="-9.5" width="170.6875" height="19" style="fill: rgb(0, 0, 0); fill-opacity: 0;"/></g></g></g><rect class="scrollbar" rx="20" ry="3" width="0" height="0" style="fill: rgb(128, 139, 164); fill-opacity: 1;" x="0" y="0"/></g><g class="g-gtitle"><text class="gtitle" x="45" y="50" text-anchor="start" dy="0em" style="font-family: 'Open Sans', verdana, arial, sans-serif; font-size: 17px; fill: rgb(42, 63, 95); opacity: 1; font-weight: normal; white-space: pre;">P2P Issued vs Personal Saving Ratio</text></g><g class="g-xtitle"><text class="xtitle" x="371.4" y="487.6125" text-anchor="middle" style="font-family: 'Open Sans', verdana, arial, sans-serif; font-size: 14px; fill: rgb(42, 63, 95); opacity: 1; font-weight: normal; white-space: pre;"><tspan style="font-weight:bold">Months</tspan></text></g><g class="g-ytitle"><text class="ytitle" transform="rotate(-90,31.840625000000003,255.5)" x="31.840625000000003" y="255.5" text-anchor="middle" style="font-family: 'Open Sans', verdana, arial, sans-serif; font-size: 14px; fill: rgb(42, 63, 95); opacity: 1; font-weight: normal; white-space: pre;"><tspan style="font-weight:bold">N. Loans</tspan></text></g><g class="g-y2title"><text class="y2title" transform="rotate(-90,715.8625,255.5)" x="715.8625" y="255.5" text-anchor="middle" style="font-family: 'Open Sans', verdana, arial, sans-serif; font-size: 14px; fill: rgb(42, 63, 95); opacity: 1; font-weight: normal; white-space: pre;">% <tspan style="font-weight:bold">Personal saving rate</tspan></text></g></g></svg>